<mxfile host="app.diagrams.net" agent="Mozilla/5.0 (Windows NT 10.0; Win64; x64; rv:130.0) Gecko/20100101 Firefox/130.0" version="24.7.16">
  <diagram name="第 1 页" id="aXgeUTv2P11chPsPHOBh">
    <mxGraphModel dx="934" dy="604" grid="1" gridSize="10" guides="1" tooltips="1" connect="1" arrows="1" fold="1" page="1" pageScale="1" pageWidth="1654" pageHeight="1169" math="0" shadow="0">
      <root>
        <mxCell id="0" />
        <mxCell id="1" parent="0" />
        <mxCell id="pA4oNV4CobMJETCra35o-20" style="edgeStyle=orthogonalEdgeStyle;rounded=0;orthogonalLoop=1;jettySize=auto;html=1;entryX=1;entryY=0.5;entryDx=0;entryDy=0;endArrow=none;endFill=0;" edge="1" parent="1" source="a2fxuArongsgJwk4BGzW-1" target="pA4oNV4CobMJETCra35o-11">
          <mxGeometry relative="1" as="geometry">
            <Array as="points">
              <mxPoint x="340" y="265" />
              <mxPoint x="340" y="250" />
            </Array>
          </mxGeometry>
        </mxCell>
        <mxCell id="pA4oNV4CobMJETCra35o-22" style="edgeStyle=orthogonalEdgeStyle;shape=connector;rounded=0;orthogonalLoop=1;jettySize=auto;html=1;entryX=1;entryY=0.5;entryDx=0;entryDy=0;strokeColor=default;align=center;verticalAlign=middle;fontFamily=Helvetica;fontSize=11;fontColor=default;labelBackgroundColor=default;endArrow=none;endFill=0;" edge="1" parent="1" source="a2fxuArongsgJwk4BGzW-1" target="pA4oNV4CobMJETCra35o-12">
          <mxGeometry relative="1" as="geometry">
            <Array as="points">
              <mxPoint x="340" y="265" />
              <mxPoint x="340" y="300" />
            </Array>
          </mxGeometry>
        </mxCell>
        <mxCell id="pA4oNV4CobMJETCra35o-28" style="edgeStyle=orthogonalEdgeStyle;shape=connector;rounded=0;orthogonalLoop=1;jettySize=auto;html=1;entryX=0;entryY=0.5;entryDx=0;entryDy=0;strokeColor=default;align=center;verticalAlign=middle;fontFamily=Helvetica;fontSize=11;fontColor=default;labelBackgroundColor=default;endArrow=none;endFill=0;" edge="1" parent="1" source="a2fxuArongsgJwk4BGzW-1" target="pA4oNV4CobMJETCra35o-3">
          <mxGeometry relative="1" as="geometry">
            <Array as="points">
              <mxPoint x="620" y="265" />
              <mxPoint x="620" y="220" />
            </Array>
          </mxGeometry>
        </mxCell>
        <mxCell id="pA4oNV4CobMJETCra35o-29" style="edgeStyle=orthogonalEdgeStyle;shape=connector;rounded=0;orthogonalLoop=1;jettySize=auto;html=1;entryX=0.003;entryY=0.364;entryDx=0;entryDy=0;strokeColor=default;align=center;verticalAlign=middle;fontFamily=Helvetica;fontSize=11;fontColor=default;labelBackgroundColor=default;endArrow=none;endFill=0;entryPerimeter=0;" edge="1" parent="1" source="a2fxuArongsgJwk4BGzW-1" target="pA4oNV4CobMJETCra35o-4">
          <mxGeometry relative="1" as="geometry" />
        </mxCell>
        <mxCell id="pA4oNV4CobMJETCra35o-30" style="edgeStyle=orthogonalEdgeStyle;shape=connector;rounded=0;orthogonalLoop=1;jettySize=auto;html=1;entryX=0;entryY=0.5;entryDx=0;entryDy=0;strokeColor=default;align=center;verticalAlign=middle;fontFamily=Helvetica;fontSize=11;fontColor=default;labelBackgroundColor=default;endArrow=none;endFill=0;" edge="1" parent="1" source="a2fxuArongsgJwk4BGzW-1" target="pA4oNV4CobMJETCra35o-5">
          <mxGeometry relative="1" as="geometry">
            <Array as="points">
              <mxPoint x="620" y="265" />
              <mxPoint x="620" y="320" />
            </Array>
          </mxGeometry>
        </mxCell>
        <mxCell id="a2fxuArongsgJwk4BGzW-1" value="车载终端" style="rounded=0;whiteSpace=wrap;html=1;fontSize=16;fillColor=#66B2FF;strokeColor=#6c8ebf;" parent="1" vertex="1">
          <mxGeometry x="350" y="230" width="260" height="70" as="geometry" />
        </mxCell>
        <mxCell id="pA4oNV4CobMJETCra35o-26" style="edgeStyle=orthogonalEdgeStyle;shape=connector;rounded=0;orthogonalLoop=1;jettySize=auto;html=1;entryX=0;entryY=0.5;entryDx=0;entryDy=0;strokeColor=default;align=center;verticalAlign=middle;fontFamily=Helvetica;fontSize=11;fontColor=default;labelBackgroundColor=default;endArrow=none;endFill=0;" edge="1" parent="1" source="a2fxuArongsgJwk4BGzW-2" target="pA4oNV4CobMJETCra35o-1">
          <mxGeometry relative="1" as="geometry">
            <Array as="points">
              <mxPoint x="620" y="150" />
              <mxPoint x="620" y="120" />
            </Array>
          </mxGeometry>
        </mxCell>
        <mxCell id="pA4oNV4CobMJETCra35o-27" style="edgeStyle=orthogonalEdgeStyle;shape=connector;rounded=0;orthogonalLoop=1;jettySize=auto;html=1;entryX=0;entryY=0.5;entryDx=0;entryDy=0;strokeColor=default;align=center;verticalAlign=middle;fontFamily=Helvetica;fontSize=11;fontColor=default;labelBackgroundColor=default;endArrow=none;endFill=0;" edge="1" parent="1" source="a2fxuArongsgJwk4BGzW-2" target="pA4oNV4CobMJETCra35o-2">
          <mxGeometry relative="1" as="geometry">
            <Array as="points">
              <mxPoint x="620" y="150" />
              <mxPoint x="620" y="170" />
            </Array>
          </mxGeometry>
        </mxCell>
        <mxCell id="a2fxuArongsgJwk4BGzW-2" value="产量监测" style="rounded=0;whiteSpace=wrap;html=1;fontSize=16;fillColor=#66B2FF;strokeColor=#6C8EBF;opacity=70;" parent="1" vertex="1">
          <mxGeometry x="490" y="120" width="120" height="60" as="geometry" />
        </mxCell>
        <mxCell id="pA4oNV4CobMJETCra35o-31" style="edgeStyle=orthogonalEdgeStyle;shape=connector;rounded=0;orthogonalLoop=1;jettySize=auto;html=1;entryX=0;entryY=0.5;entryDx=0;entryDy=0;strokeColor=default;align=center;verticalAlign=middle;fontFamily=Helvetica;fontSize=11;fontColor=default;labelBackgroundColor=default;endArrow=none;endFill=0;" edge="1" parent="1" source="a2fxuArongsgJwk4BGzW-3" target="pA4oNV4CobMJETCra35o-6">
          <mxGeometry relative="1" as="geometry">
            <Array as="points">
              <mxPoint x="620" y="380" />
              <mxPoint x="620" y="370" />
            </Array>
          </mxGeometry>
        </mxCell>
        <mxCell id="pA4oNV4CobMJETCra35o-32" style="edgeStyle=orthogonalEdgeStyle;shape=connector;rounded=0;orthogonalLoop=1;jettySize=auto;html=1;entryX=0;entryY=0.5;entryDx=0;entryDy=0;strokeColor=default;align=center;verticalAlign=middle;fontFamily=Helvetica;fontSize=11;fontColor=default;labelBackgroundColor=default;endArrow=none;endFill=0;" edge="1" parent="1" source="a2fxuArongsgJwk4BGzW-3" target="pA4oNV4CobMJETCra35o-7">
          <mxGeometry relative="1" as="geometry">
            <Array as="points">
              <mxPoint x="620" y="380" />
              <mxPoint x="620" y="420" />
            </Array>
          </mxGeometry>
        </mxCell>
        <mxCell id="a2fxuArongsgJwk4BGzW-3" value="路径规划" style="rounded=0;whiteSpace=wrap;html=1;fontSize=16;fillColor=#66B2FF;strokeColor=#6c8ebf;opacity=70;" parent="1" vertex="1">
          <mxGeometry x="490" y="350" width="120" height="60" as="geometry" />
        </mxCell>
        <mxCell id="pA4oNV4CobMJETCra35o-23" style="edgeStyle=orthogonalEdgeStyle;shape=connector;rounded=0;orthogonalLoop=1;jettySize=auto;html=1;entryX=1;entryY=0.5;entryDx=0;entryDy=0;strokeColor=default;align=center;verticalAlign=middle;fontFamily=Helvetica;fontSize=11;fontColor=default;labelBackgroundColor=default;endArrow=none;endFill=0;" edge="1" parent="1" source="a2fxuArongsgJwk4BGzW-4" target="pA4oNV4CobMJETCra35o-13">
          <mxGeometry relative="1" as="geometry">
            <Array as="points">
              <mxPoint x="340" y="380" />
              <mxPoint x="340" y="360" />
            </Array>
          </mxGeometry>
        </mxCell>
        <mxCell id="pA4oNV4CobMJETCra35o-24" style="edgeStyle=orthogonalEdgeStyle;shape=connector;rounded=0;orthogonalLoop=1;jettySize=auto;html=1;entryX=1;entryY=0.5;entryDx=0;entryDy=0;strokeColor=default;align=center;verticalAlign=middle;fontFamily=Helvetica;fontSize=11;fontColor=default;labelBackgroundColor=default;endArrow=none;endFill=0;" edge="1" parent="1" source="a2fxuArongsgJwk4BGzW-4" target="pA4oNV4CobMJETCra35o-14">
          <mxGeometry relative="1" as="geometry">
            <Array as="points">
              <mxPoint x="340" y="380" />
              <mxPoint x="340" y="410" />
            </Array>
          </mxGeometry>
        </mxCell>
        <mxCell id="a2fxuArongsgJwk4BGzW-4" value="云平台" style="rounded=0;whiteSpace=wrap;html=1;fontSize=16;fillColor=#66B2FF;strokeColor=#6c8ebf;opacity=70;" parent="1" vertex="1">
          <mxGeometry x="350" y="350" width="120" height="60" as="geometry" />
        </mxCell>
        <mxCell id="pA4oNV4CobMJETCra35o-16" style="edgeStyle=orthogonalEdgeStyle;rounded=0;orthogonalLoop=1;jettySize=auto;html=1;endArrow=none;endFill=0;" edge="1" parent="1" source="a2fxuArongsgJwk4BGzW-5" target="pA4oNV4CobMJETCra35o-8">
          <mxGeometry relative="1" as="geometry">
            <Array as="points">
              <mxPoint x="340" y="150" />
              <mxPoint x="340" y="100" />
            </Array>
          </mxGeometry>
        </mxCell>
        <mxCell id="pA4oNV4CobMJETCra35o-25" style="edgeStyle=orthogonalEdgeStyle;shape=connector;rounded=0;orthogonalLoop=1;jettySize=auto;html=1;entryX=1;entryY=0.5;entryDx=0;entryDy=0;strokeColor=default;align=center;verticalAlign=middle;fontFamily=Helvetica;fontSize=11;fontColor=default;labelBackgroundColor=default;endArrow=none;endFill=0;" edge="1" parent="1" source="a2fxuArongsgJwk4BGzW-5" target="pA4oNV4CobMJETCra35o-10">
          <mxGeometry relative="1" as="geometry">
            <Array as="points">
              <mxPoint x="340" y="150" />
              <mxPoint x="340" y="200" />
            </Array>
          </mxGeometry>
        </mxCell>
        <mxCell id="a2fxuArongsgJwk4BGzW-5" value="智能导航" style="rounded=0;whiteSpace=wrap;html=1;fontSize=16;fillColor=#66B2FF;strokeColor=#6c8ebf;opacity=70;" parent="1" vertex="1">
          <mxGeometry x="350" y="120" width="120" height="60" as="geometry" />
        </mxCell>
        <mxCell id="a2fxuArongsgJwk4BGzW-14" value="" style="shape=flexArrow;endArrow=none;html=1;rounded=0;strokeColor=none;strokeWidth=2;align=center;verticalAlign=middle;fontFamily=Helvetica;fontSize=11;fontColor=default;labelBackgroundColor=default;edgeStyle=orthogonalEdgeStyle;endSize=6;fillColor=#1ba1e2;startArrow=block;endFill=0;" parent="1" edge="1">
          <mxGeometry width="50" height="50" relative="1" as="geometry">
            <mxPoint x="409.65999999999997" y="225" as="sourcePoint" />
            <mxPoint x="409.65999999999997" y="185" as="targetPoint" />
          </mxGeometry>
        </mxCell>
        <mxCell id="a2fxuArongsgJwk4BGzW-15" value="" style="shape=flexArrow;endArrow=none;html=1;rounded=0;strokeColor=none;strokeWidth=2;align=center;verticalAlign=middle;fontFamily=Helvetica;fontSize=11;fontColor=default;labelBackgroundColor=default;edgeStyle=orthogonalEdgeStyle;endSize=6;fillColor=#1ba1e2;startArrow=block;endFill=0;" parent="1" edge="1">
          <mxGeometry width="50" height="50" relative="1" as="geometry">
            <mxPoint x="560" y="225" as="sourcePoint" />
            <mxPoint x="560" y="185" as="targetPoint" />
          </mxGeometry>
        </mxCell>
        <mxCell id="a2fxuArongsgJwk4BGzW-16" value="" style="shape=flexArrow;endArrow=none;html=1;rounded=0;strokeColor=none;strokeWidth=2;align=center;verticalAlign=middle;fontFamily=Helvetica;fontSize=11;fontColor=default;labelBackgroundColor=default;edgeStyle=orthogonalEdgeStyle;endSize=6;fillColor=#1ba1e2;startArrow=block;endFill=0;" parent="1" edge="1">
          <mxGeometry width="50" height="50" relative="1" as="geometry">
            <mxPoint x="409.58000000000004" y="308" as="sourcePoint" />
            <mxPoint x="409.58000000000004" y="348" as="targetPoint" />
          </mxGeometry>
        </mxCell>
        <mxCell id="a2fxuArongsgJwk4BGzW-17" value="" style="shape=flexArrow;endArrow=none;html=1;rounded=0;strokeColor=none;strokeWidth=2;align=center;verticalAlign=middle;fontFamily=Helvetica;fontSize=11;fontColor=default;labelBackgroundColor=default;edgeStyle=orthogonalEdgeStyle;endSize=6;fillColor=#1ba1e2;endFill=0;startArrow=block;" parent="1" edge="1">
          <mxGeometry width="50" height="50" relative="1" as="geometry">
            <mxPoint x="560" y="307" as="sourcePoint" />
            <mxPoint x="560" y="347" as="targetPoint" />
          </mxGeometry>
        </mxCell>
        <mxCell id="pA4oNV4CobMJETCra35o-1" value="作业统计" style="rounded=0;whiteSpace=wrap;html=1;fontSize=16;fillColor=#66B2FF;opacity=50;strokeColor=#6C8EBF;" vertex="1" parent="1">
          <mxGeometry x="630" y="100" width="120" height="40" as="geometry" />
        </mxCell>
        <mxCell id="pA4oNV4CobMJETCra35o-2" value="产量分析" style="rounded=0;whiteSpace=wrap;html=1;fontSize=16;fillColor=#66B2FF;opacity=50;strokeColor=#6C8EBF;" vertex="1" parent="1">
          <mxGeometry x="630" y="150" width="120" height="40" as="geometry" />
        </mxCell>
        <mxCell id="pA4oNV4CobMJETCra35o-3" value="参数设置" style="rounded=0;whiteSpace=wrap;html=1;fontSize=16;fillColor=#66B2FF;opacity=50;strokeColor=#6C8EBF;" vertex="1" parent="1">
          <mxGeometry x="630" y="200" width="120" height="40" as="geometry" />
        </mxCell>
        <mxCell id="pA4oNV4CobMJETCra35o-4" value="数据分析" style="rounded=0;whiteSpace=wrap;html=1;fontSize=16;fillColor=#66B2FF;opacity=50;strokeColor=#6C8EBF;" vertex="1" parent="1">
          <mxGeometry x="630" y="250" width="120" height="40" as="geometry" />
        </mxCell>
        <mxCell id="pA4oNV4CobMJETCra35o-5" value="数据存储" style="rounded=0;whiteSpace=wrap;html=1;fontSize=16;fillColor=#66B2FF;opacity=50;strokeColor=#6C8EBF;" vertex="1" parent="1">
          <mxGeometry x="630" y="300" width="120" height="40" as="geometry" />
        </mxCell>
        <mxCell id="pA4oNV4CobMJETCra35o-6" value="局部路径规划" style="rounded=0;whiteSpace=wrap;html=1;fontSize=16;fillColor=#66B2FF;opacity=50;strokeColor=#6C8EBF;" vertex="1" parent="1">
          <mxGeometry x="630" y="350" width="120" height="40" as="geometry" />
        </mxCell>
        <mxCell id="pA4oNV4CobMJETCra35o-7" value="全局路径规划" style="rounded=0;whiteSpace=wrap;html=1;fontSize=16;fillColor=#66B2FF;opacity=50;strokeColor=#6C8EBF;" vertex="1" parent="1">
          <mxGeometry x="630" y="400" width="120" height="40" as="geometry" />
        </mxCell>
        <mxCell id="pA4oNV4CobMJETCra35o-8" value="直线导航" style="rounded=0;whiteSpace=wrap;html=1;fontSize=16;fillColor=#66B2FF;opacity=50;strokeColor=#6C8EBF;" vertex="1" parent="1">
          <mxGeometry x="210" y="80" width="120" height="40" as="geometry" />
        </mxCell>
        <mxCell id="pA4oNV4CobMJETCra35o-17" style="edgeStyle=orthogonalEdgeStyle;rounded=0;orthogonalLoop=1;jettySize=auto;html=1;endArrow=none;endFill=0;" edge="1" parent="1" source="pA4oNV4CobMJETCra35o-9" target="a2fxuArongsgJwk4BGzW-5">
          <mxGeometry relative="1" as="geometry" />
        </mxCell>
        <mxCell id="pA4oNV4CobMJETCra35o-9" value="曲线导航" style="rounded=0;whiteSpace=wrap;html=1;fontSize=16;fillColor=#66B2FF;opacity=50;strokeColor=#6C8EBF;" vertex="1" parent="1">
          <mxGeometry x="210" y="130" width="120" height="40" as="geometry" />
        </mxCell>
        <mxCell id="pA4oNV4CobMJETCra35o-10" value="障碍物检测" style="rounded=0;whiteSpace=wrap;html=1;fontSize=16;fillColor=#66B2FF;opacity=50;strokeColor=#6C8EBF;" vertex="1" parent="1">
          <mxGeometry x="210" y="180" width="120" height="40" as="geometry" />
        </mxCell>
        <mxCell id="pA4oNV4CobMJETCra35o-11" value="数据接收" style="rounded=0;whiteSpace=wrap;html=1;fontSize=16;fillColor=#66B2FF;opacity=50;strokeColor=#6C8EBF;" vertex="1" parent="1">
          <mxGeometry x="210" y="230" width="120" height="40" as="geometry" />
        </mxCell>
        <mxCell id="pA4oNV4CobMJETCra35o-12" value="命令下发" style="rounded=0;whiteSpace=wrap;html=1;fontSize=16;fillColor=#66B2FF;opacity=50;strokeColor=#6C8EBF;" vertex="1" parent="1">
          <mxGeometry x="210" y="280" width="120" height="40" as="geometry" />
        </mxCell>
        <mxCell id="pA4oNV4CobMJETCra35o-13" value="作业监控" style="rounded=0;whiteSpace=wrap;html=1;fontSize=16;fillColor=#66B2FF;opacity=50;strokeColor=#6C8EBF;" vertex="1" parent="1">
          <mxGeometry x="210" y="340" width="120" height="40" as="geometry" />
        </mxCell>
        <mxCell id="pA4oNV4CobMJETCra35o-14" value="协同通信" style="rounded=0;whiteSpace=wrap;html=1;fontSize=16;fillColor=#66B2FF;opacity=50;strokeColor=#6C8EBF;" vertex="1" parent="1">
          <mxGeometry x="210" y="390" width="120" height="40" as="geometry" />
        </mxCell>
      </root>
    </mxGraphModel>
  </diagram>
</mxfile>
